<?xml version="1.0" standalone="no"?>
<!DOCTYPE svg PUBLIC "-//W3C//DTD SVG 20010904//EN"
 "http://www.w3.org/TR/2001/REC-SVG-20010904/DTD/svg10.dtd">
<svg version="1.0" xmlns="http://www.w3.org/2000/svg"
 width="1350.000000pt" height="1350.000000pt" viewBox="0 0 1350.000000 1350.000000"
 preserveAspectRatio="xMidYMid meet">
<metadata>
Created by potrace 1.10, written by Peter Selinger 2001-2011
</metadata>
<g transform="translate(0.000000,1350.000000) scale(0.100000,-0.100000)"
fill="#104c60" stroke="none">
<path d="M6190 13486 c0 -14 -67 -26 -150 -26 -52 0 -241 -24 -350 -45 -42 -8
-88 -15 -104 -15 -15 0 -55 -6 -89 -14 -34 -8 -93 -21 -132 -30 -194 -40 -233
-49 -270 -62 -23 -8 -49 -14 -59 -14 -10 0 -41 -7 -70 -16 -56 -19 -103 -33
-186 -58 -52 -15 -221 -70 -300 -97 -19 -6 -48 -17 -65 -24 -16 -7 -49 -20
-72 -29 -24 -9 -62 -23 -85 -32 -60 -23 -109 -44 -210 -88 -21 -9 -53 -22 -70
-30 -56 -24 -360 -175 -428 -212 -36 -20 -87 -48 -113 -63 -63 -34 -95 -53
-265 -156 -135 -82 -358 -237 -517 -360 -16 -12 -51 -39 -76 -58 -72 -54 -236
-191 -324 -270 -194 -174 -511 -495 -600 -607 -55 -70 -109 -135 -166 -200
-186 -217 -471 -634 -626 -920 -23 -41 -57 -104 -77 -140 -55 -98 -226 -450
-226 -463 0 -4 -13 -35 -28 -69 -16 -35 -37 -83 -46 -108 -10 -25 -23 -54 -28
-64 -6 -11 -14 -31 -18 -45 -5 -14 -18 -51 -30 -81 -11 -30 -30 -84 -41 -120
-12 -36 -27 -81 -34 -100 -31 -88 -37 -107 -45 -140 -4 -19 -20 -70 -34 -113
-14 -43 -26 -86 -26 -97 0 -11 -6 -34 -14 -52 -8 -18 -21 -69 -31 -113 -9 -44
-23 -103 -31 -131 -8 -28 -14 -64 -14 -81 0 -17 -7 -47 -15 -66 -8 -20 -15
-50 -15 -67 0 -17 -6 -56 -14 -88 -16 -63 -32 -169 -46 -307 -5 -49 -14 -119
-20 -155 -5 -36 -13 -112 -16 -170 -8 -128 -8 -964 0 -1075 10 -135 37 -376
52 -458 8 -42 14 -89 14 -103 0 -14 7 -58 15 -98 9 -39 23 -105 31 -146 8 -41
20 -95 26 -120 6 -25 14 -65 19 -90 5 -25 18 -79 29 -120 12 -41 23 -86 26
-100 7 -30 61 -213 75 -255 6 -16 15 -43 19 -60 20 -70 80 -241 105 -300 7
-16 19 -48 28 -70 25 -66 117 -286 149 -355 38 -84 197 -401 207 -415 5 -5 28
-46 51 -90 24 -44 59 -105 79 -135 49 -77 59 -92 70 -115 10 -22 157 -244 209
-315 108 -150 216 -296 221 -300 4 -3 24 -27 46 -55 71 -89 188 -229 245 -290
97 -105 463 -468 534 -530 38 -33 88 -76 110 -96 61 -54 241 -196 331 -262 44
-31 116 -83 160 -115 93 -68 308 -209 413 -273 66 -39 104 -61 222 -126 172
-95 498 -251 675 -322 44 -18 89 -37 99 -43 11 -6 31 -14 45 -18 14 -5 51 -18
81 -30 30 -12 69 -25 85 -30 17 -5 46 -14 65 -21 19 -6 51 -17 70 -24 19 -7
51 -18 70 -25 19 -6 51 -16 70 -20 40 -9 200 -56 245 -71 41 -14 140 -38 200
-48 28 -5 63 -14 78 -20 16 -6 42 -11 58 -11 17 0 39 -5 50 -10 10 -6 47 -15
82 -19 34 -5 87 -13 117 -19 158 -30 397 -61 575 -74 193 -15 993 -15 1170 0
187 15 420 45 565 73 30 6 80 15 110 19 30 4 73 12 95 18 22 6 76 18 120 27
101 21 192 43 230 57 17 5 50 14 75 18 25 4 56 12 70 18 14 5 52 17 85 27 33
9 76 23 95 30 19 7 82 27 140 46 58 18 119 38 135 45 17 7 50 20 75 29 25 9
59 23 75 30 17 7 50 20 75 30 65 24 132 52 210 87 79 35 429 211 485 243 33
19 74 41 90 49 17 8 51 28 77 43 181 108 253 153 323 202 44 30 105 71 135 92
54 36 266 196 390 294 289 227 679 607 895 871 22 27 54 64 71 84 158 183 390
510 583 825 105 171 285 514 367 700 7 17 27 60 43 98 17 37 31 71 31 76 0 5
8 24 17 43 9 18 22 45 30 60 7 14 13 34 13 43 0 9 6 29 14 43 21 40 45 108
103 287 19 61 41 126 48 145 12 34 30 93 60 205 8 30 21 79 29 108 69 258 152
737 173 1007 6 68 12 94 21 92 9 -1 12 116 12 564 0 345 -4 563 -9 559 -15 -8
-22 25 -31 152 -11 145 -27 267 -46 354 -8 37 -14 77 -14 90 0 13 -6 56 -15
94 -8 39 -22 106 -30 150 -9 44 -23 103 -31 131 -7 28 -14 59 -14 69 0 9 -7
38 -14 64 -8 25 -22 73 -31 106 -9 33 -21 74 -27 90 -5 17 -16 53 -24 80 -8
28 -21 73 -30 100 -8 28 -19 64 -24 80 -11 39 -30 92 -47 132 -7 17 -13 36
-13 42 0 6 -6 25 -14 43 -8 18 -22 53 -31 78 -10 25 -23 59 -31 75 -7 17 -36
86 -65 155 -70 169 -198 440 -248 525 -10 17 -35 62 -56 100 -32 59 -168 287
-208 349 -108 169 -379 553 -406 576 -4 3 -36 41 -71 84 -256 312 -594 655
-880 891 -58 48 -118 98 -135 112 -98 84 -403 301 -591 420 -141 91 -381 229
-509 294 -44 22 -87 44 -95 50 -14 8 -131 63 -260 122 -30 13 -95 41 -145 62
-49 20 -103 42 -120 49 -16 8 -50 21 -75 31 -25 9 -60 23 -78 31 -18 8 -40 14
-48 14 -9 0 -28 6 -42 14 -25 13 -141 51 -277 91 -33 10 -76 23 -95 30 -35 12
-49 16 -205 56 -147 37 -189 46 -275 63 -47 10 -116 23 -155 31 -68 13 -179
32 -335 55 -41 7 -130 15 -196 19 -122 8 -149 14 -139 32 4 5 -213 9 -559 9
-471 0 -566 -2 -566 -14z m1125 -415 l80 -6 -2 -65 c-2 -36 -7 -87 -13 -113
-14 -69 -13 -167 3 -166 6 0 57 68 111 150 72 108 106 151 124 156 13 3 54 1
91 -5 36 -6 94 -14 129 -17 35 -2 72 -9 82 -15 20 -11 28 -40 12 -40 -5 0 -23
-21 -41 -46 -18 -25 -50 -65 -70 -88 -68 -81 -171 -215 -171 -223 0 -7 71
-149 194 -387 45 -87 42 -100 -21 -86 -23 6 -95 14 -159 20 -129 11 -160 24
-170 68 -4 15 -10 32 -14 37 -15 19 -110 253 -110 269 0 9 -6 16 -13 16 -16 0
-47 -167 -47 -254 0 -72 -16 -88 -78 -82 -26 3 -76 8 -112 11 -85 8 -135 29
-125 52 4 10 11 56 15 103 19 193 88 708 97 724 3 5 33 5 67 1 33 -4 97 -10
141 -14z m-852 -5 c8 -8 20 -29 27 -48 16 -42 40 -99 52 -118 8 -15 9 -18 35
-85 8 -22 19 -47 23 -56 4 -8 47 -107 95 -220 48 -112 98 -225 111 -251 12
-26 19 -50 14 -53 -5 -3 -78 -13 -161 -22 -148 -17 -152 -17 -166 3 -8 10 -17
31 -20 46 -9 47 -22 51 -143 40 -62 -6 -114 -13 -117 -15 -2 -3 -7 -27 -11
-53 -9 -59 -16 -62 -195 -65 -97 -2 -132 1 -135 10 -2 7 3 38 12 69 9 31 23
82 32 112 16 59 31 108 58 205 10 33 24 85 33 115 79 292 103 369 116 377 5 3
73 9 151 13 77 4 149 8 158 8 9 1 23 -4 31 -12z m-1041 -162 c59 -22 103 -74
128 -150 22 -64 22 -65 3 -116 -10 -29 -30 -60 -45 -71 -35 -26 -27 -37 25
-37 56 0 98 -28 142 -95 16 -24 20 -48 20 -121 0 -84 -2 -93 -29 -128 -30 -40
-124 -106 -150 -106 -9 0 -30 -6 -48 -14 -18 -8 -62 -22 -98 -31 -83 -21 -163
-43 -220 -60 -42 -13 -79 -19 -107 -16 -7 1 -13 10 -13 22 0 11 -5 29 -11 40
-6 11 -14 41 -19 67 -4 26 -13 61 -18 77 -6 17 -18 59 -27 95 -18 71 -40 150
-61 219 -8 25 -14 56 -14 71 0 14 -4 30 -9 36 -10 10 -51 164 -51 192 0 19 17
26 180 69 92 24 153 41 205 56 68 20 165 21 217 1z m3038 -44 c58 -18 111 -34
118 -36 6 -2 12 -13 12 -25 0 -19 -31 -122 -65 -219 -36 -99 -76 -236 -82
-275 -8 -62 2 -89 41 -110 29 -16 38 -17 65 -5 33 13 67 65 82 125 7 28 14 51
44 135 29 79 75 231 75 244 0 7 8 24 18 37 l19 22 119 -37 c65 -21 125 -40
132 -42 31 -9 24 -56 -33 -214 -7 -19 -20 -60 -29 -90 -95 -323 -143 -397
-291 -449 -126 -45 -293 -13 -420 80 -63 46 -76 60 -114 133 -27 50 -31 69
-31 132 0 40 6 93 14 116 7 24 28 90 46 148 17 58 38 121 45 140 28 80 37 107
44 135 5 17 15 47 24 68 14 33 19 36 39 28 13 -5 70 -24 128 -41z m1004 -374
c49 -25 94 -46 100 -46 6 -1 22 -10 35 -20 22 -19 23 -25 22 -140 -2 -139 2
-144 68 -76 24 25 62 58 85 74 41 30 42 30 76 13 168 -83 260 -135 257 -144
-3 -10 -184 -127 -242 -157 -11 -6 -33 -19 -50 -30 -31 -20 -35 -22 -128 -78
-53 -31 -56 -35 -138 -198 -46 -92 -89 -168 -94 -170 -6 -3 -66 25 -135 60
-87 44 -126 70 -128 83 -3 17 127 285 149 307 13 15 11 163 -6 311 -15 135
-19 267 -9 278 4 3 16 0 28 -7 11 -8 61 -34 110 -60z m-5551 -193 c163 -320
209 -409 217 -417 9 -9 215 88 226 106 3 4 18 8 33 8 26 0 33 -9 84 -112 30
-61 53 -117 50 -124 -2 -6 -48 -34 -101 -61 -53 -27 -171 -87 -261 -133 -128
-65 -167 -81 -180 -73 -9 5 -91 158 -183 339 -219 431 -208 409 -208 420 0 13
228 131 257 133 18 1 30 -15 66 -86z m-646 -341 c23 -31 51 -68 62 -82 11 -14
33 -42 48 -62 15 -20 63 -82 106 -137 131 -170 162 -274 119 -398 -42 -119
-125 -206 -263 -275 -59 -29 -72 -31 -159 -31 -74 1 -105 5 -140 22 -58 26
-141 113 -260 271 -52 69 -99 130 -106 135 -19 16 -94 121 -94 131 0 5 22 25
48 44 26 19 70 53 97 76 60 50 95 69 104 57 79 -96 110 -135 181 -228 46 -60
90 -116 97 -123 7 -7 18 -21 25 -31 52 -71 135 -79 165 -15 15 30 15 39 3 72
-12 33 -87 141 -116 167 -6 6 -33 39 -60 75 -26 36 -54 71 -61 78 -7 8 -27 35
-45 60 -17 26 -35 49 -40 50 -22 10 0 37 75 93 45 35 84 66 87 69 12 15 56 40
70 40 8 0 34 -26 57 -58z m3863 -72 c63 -6 158 -15 210 -21 52 -6 127 -15 165
-19 39 -4 95 -13 125 -20 30 -6 87 -18 125 -25 39 -8 93 -19 120 -25 28 -6 68
-15 90 -19 22 -4 56 -12 75 -18 19 -6 62 -19 95 -28 33 -9 74 -21 90 -27 17
-5 46 -14 65 -18 19 -4 51 -14 70 -20 105 -38 183 -67 228 -86 18 -8 37 -14
43 -14 6 0 35 -11 65 -25 30 -14 82 -37 117 -51 83 -35 347 -165 422 -209 33
-19 69 -39 80 -45 11 -6 34 -19 50 -30 17 -11 39 -24 50 -30 11 -6 34 -19 50
-30 17 -11 37 -23 45 -27 27 -12 279 -188 375 -261 281 -214 600 -524 850
-826 81 -98 252 -330 290 -394 6 -9 12 -19 15 -22 10 -10 50 -69 50 -74 0 -3
13 -24 29 -48 29 -44 73 -118 91 -153 6 -11 26 -47 45 -80 47 -80 225 -445
225 -460 0 -2 13 -32 29 -67 16 -35 38 -90 50 -123 11 -33 30 -85 41 -115 12
-30 25 -68 30 -85 5 -16 13 -43 18 -60 11 -31 28 -88 57 -190 9 -33 23 -80 30
-105 7 -25 20 -81 30 -125 9 -44 21 -98 27 -120 6 -22 14 -65 18 -95 5 -30 13
-82 18 -115 33 -189 40 -260 62 -640 7 -134 7 -247 0 -380 -15 -271 -28 -434
-40 -480 -5 -22 -10 -59 -10 -83 0 -24 -6 -71 -14 -105 -8 -34 -20 -91 -26
-127 -25 -136 -37 -192 -65 -295 -39 -141 -48 -174 -61 -215 -23 -75 -81 -253
-92 -280 -5 -14 -17 -43 -25 -65 -40 -107 -142 -342 -154 -356 -7 -8 -13 -19
-13 -24 0 -7 -85 -182 -110 -225 -48 -83 -102 -178 -110 -190 -5 -8 -35 -58
-66 -110 -32 -52 -81 -128 -111 -167 -29 -40 -53 -75 -53 -79 0 -7 -73 -98
-82 -102 -5 -2 -8 -8 -8 -13 0 -14 -44 -69 -211 -264 -196 -228 -371 -398
-644 -627 -48 -41 -75 -61 -206 -158 -74 -55 -288 -200 -294 -200 -2 0 -30
-17 -62 -38 -54 -36 -95 -59 -268 -154 -71 -38 -138 -72 -165 -82 -8 -3 -22
-10 -30 -15 -8 -5 -35 -18 -60 -29 -25 -11 -72 -32 -105 -47 -33 -15 -75 -33
-92 -41 -18 -8 -48 -21 -65 -28 -40 -18 -172 -65 -213 -75 -16 -5 -41 -13 -55
-19 -23 -10 -165 -53 -285 -86 -27 -8 -74 -22 -104 -30 -29 -9 -64 -16 -76
-16 -13 0 -36 -5 -52 -11 -15 -6 -50 -15 -78 -19 -27 -5 -86 -15 -130 -23
-341 -63 -449 -71 -925 -71 -307 1 -454 5 -500 14 -36 6 -103 16 -150 20 -113
11 -279 39 -415 70 -27 6 -68 15 -90 19 -71 14 -277 72 -380 107 -23 8 -47 14
-55 14 -8 0 -27 6 -42 14 -15 8 -40 17 -57 21 -17 4 -33 11 -36 16 -4 5 -15 9
-25 9 -11 0 -34 6 -52 14 -18 8 -69 28 -113 46 -152 60 -415 184 -515 242 -19
11 -57 32 -83 47 -56 30 -82 45 -119 69 -15 9 -69 43 -120 75 -51 31 -132 85
-180 120 -48 34 -107 76 -130 92 -39 27 -186 143 -198 155 -3 3 -54 48 -115
99 -142 122 -394 375 -513 516 -97 115 -332 420 -332 431 0 3 -14 23 -30 44
-17 21 -30 40 -30 43 0 2 -26 44 -58 93 -72 108 -166 275 -233 409 -28 55 -54
107 -59 115 -5 8 -17 35 -28 60 -11 25 -31 70 -45 100 -24 54 -77 182 -103
250 -7 19 -21 60 -30 90 -10 30 -23 69 -30 85 -7 17 -20 57 -29 90 -10 33 -24
78 -31 100 -8 23 -14 50 -14 62 0 12 -4 24 -9 27 -5 4 -12 25 -16 49 -4 23
-13 65 -20 92 -30 112 -38 142 -46 190 -12 75 -28 163 -40 225 -6 30 -15 96
-20 145 -4 50 -13 122 -18 160 -16 117 -23 587 -12 805 9 193 18 286 42 440 5
36 14 94 19 130 6 36 15 88 21 115 6 28 18 82 26 120 8 39 21 91 29 116 8 26
14 55 14 65 0 11 7 39 15 64 8 25 29 92 46 150 17 58 35 116 41 130 5 14 20
56 33 95 13 38 33 95 45 125 12 30 25 67 30 81 4 14 12 34 18 45 6 10 19 39
30 64 87 197 199 421 253 505 14 22 29 47 32 55 4 8 16 29 27 45 11 17 24 39
30 50 12 23 13 25 105 164 196 295 438 586 696 837 98 95 285 259 358 314 18
14 58 46 89 71 67 54 169 125 307 216 55 36 112 74 127 84 15 11 30 19 32 19
3 0 34 17 68 38 106 65 298 167 379 202 13 5 31 14 39 19 28 17 150 71 159 71
5 0 24 8 43 17 69 34 74 37 208 82 36 13 79 29 97 37 17 8 40 14 51 14 12 0
23 4 27 9 3 5 20 12 38 16 17 4 50 12 72 20 22 7 65 20 95 28 30 9 79 23 109
31 29 9 62 16 73 16 11 0 29 5 40 11 12 7 47 15 77 19 56 8 115 19 246 46 39
8 86 14 105 14 19 0 51 5 70 10 33 10 171 22 450 40 145 9 444 4 610 -10z
m3458 -84 c53 -41 115 -90 137 -109 l39 -34 -16 -39 c-17 -42 -64 -180 -78
-229 -4 -16 -13 -43 -19 -60 -45 -128 -64 -184 -71 -210 -9 -33 -87 -267 -101
-302 -8 -21 -49 -34 -49 -15 0 4 -24 25 -52 46 -116 86 -168 132 -168 149 0
11 7 34 16 53 16 32 15 36 -2 55 -25 28 -158 129 -170 129 -5 0 -27 -14 -48
-30 -21 -16 -44 -27 -50 -23 -45 26 -246 187 -246 197 0 6 30 30 66 51 102 61
104 63 184 115 41 27 116 74 165 105 50 30 135 85 190 120 55 36 110 69 122
74 11 6 24 15 28 20 11 19 24 12 123 -63z m-8110 -1194 c39 -35 72 -68 72 -72
0 -12 -249 -300 -259 -300 -5 0 -47 34 -95 75 -93 82 -93 83 -44 135 12 14 54
62 92 105 124 145 126 147 145 133 9 -7 49 -41 89 -76z m8703 27 c24 -29 81
-95 126 -148 l83 -96 -48 -45 c-79 -75 -122 -110 -135 -110 -7 0 -47 39 -89
88 -42 48 -93 105 -113 127 -20 22 -44 51 -53 64 -15 22 -14 24 5 40 11 9 44
36 74 60 30 24 58 49 62 57 15 26 43 14 88 -37z m-9225 -7421 c48 -62 102
-131 121 -152 18 -22 33 -45 33 -53 0 -15 -181 -154 -192 -147 -4 3 -48 58
-98 122 -50 64 -102 131 -116 149 -17 22 -23 37 -17 47 6 11 169 143 180 146
1 0 41 -51 89 -112z m9684 -50 c47 -37 80 -70 80 -81 0 -10 -28 -54 -62 -99
-35 -44 -71 -92 -80 -105 -9 -14 -20 -29 -25 -32 -5 -3 -19 -21 -32 -38 -12
-18 -29 -33 -37 -33 -17 0 -184 128 -184 141 0 22 229 309 246 309 8 0 50 -28
94 -62z m-8771 -310 c315 -306 342 -333 339 -350 -3 -19 -165 -188 -181 -188
-5 0 -34 23 -63 50 -29 28 -57 50 -62 50 -9 0 -212 -203 -349 -349 -48 -51
-63 -62 -77 -54 -32 18 -207 196 -204 208 2 7 89 100 193 208 105 108 191 203
193 211 2 7 -22 39 -53 70 l-56 58 29 32 c60 69 157 166 166 166 4 0 61 -51
125 -112z m7833 -157 c176 -29 328 -185 368 -379 56 -269 -221 -574 -499 -549
-65 6 -103 16 -171 44 -36 16 -107 67 -126 93 -7 8 -24 28 -38 43 -55 59 -106
195 -106 282 0 96 63 245 136 319 124 126 268 174 436 147z m-7184 -388 c37
-26 69 -50 72 -53 3 -4 31 -26 63 -49 42 -32 57 -50 57 -68 0 -21 -64 -228
-105 -343 -25 -68 -75 -230 -75 -241 0 -6 -6 -25 -13 -42 -23 -54 -39 -100
-46 -137 -4 -19 -15 -50 -25 -68 -14 -26 -20 -31 -35 -23 -10 6 -24 17 -31 26
-7 9 -47 40 -89 69 -42 30 -87 65 -100 79 -22 24 -22 27 -7 49 33 46 22 72
-56 133 -100 78 -113 83 -141 58 -54 -49 -54 -49 -183 48 -65 50 -120 97 -122
104 -2 8 111 89 280 202 155 103 286 190 291 192 5 2 43 27 85 57 43 29 85 53
95 54 10 0 48 -21 85 -47z m6389 -260 c99 -43 129 -62 174 -113 28 -30 64 -84
81 -120 30 -61 32 -72 32 -180 0 -110 -1 -118 -33 -180 -18 -36 -49 -82 -69
-103 -38 -40 -146 -127 -157 -127 -3 0 -36 -19 -73 -43 -131 -85 -192 -118
-209 -115 -11 2 -91 123 -200 303 -101 165 -188 309 -193 320 -22 42 -38 67
-49 78 -26 26 -7 44 126 122 263 154 312 173 440 174 66 1 103 -4 130 -16z
m-5826 -113 c41 -21 149 -76 241 -122 132 -66 167 -87 168 -103 0 -23 -73
-167 -94 -184 -11 -10 -36 -1 -120 43 -58 31 -112 56 -120 56 -9 0 -22 -12
-30 -28 -20 -38 -8 -51 97 -101 49 -23 91 -49 94 -57 3 -8 -14 -53 -37 -99
-35 -70 -47 -85 -66 -85 -12 0 -25 4 -28 8 -9 14 -153 82 -174 82 -18 0 -42
-41 -42 -71 0 -4 46 -31 103 -59 146 -73 145 -70 89 -180 -26 -53 -51 -90 -60
-90 -8 0 -78 32 -156 72 -78 39 -189 96 -248 126 -60 30 -108 59 -108 66 0 6
29 70 66 141 36 72 69 137 73 145 4 8 13 25 20 38 6 12 34 68 62 125 28 56 55
109 59 117 5 8 25 49 46 90 40 82 61 110 79 110 6 0 45 -18 86 -40z m631 -306
c15 -8 35 -14 46 -14 10 0 23 -5 28 -10 6 -6 33 -16 60 -23 43 -11 49 -15 47
-37 -2 -32 -16 -81 -43 -150 -12 -30 -25 -70 -30 -88 -4 -18 -13 -39 -20 -47
-7 -8 -9 -22 -6 -31 5 -12 37 13 139 108 190 177 171 164 210 146 34 -16 82
-34 132 -49 144 -42 166 -59 118 -94 -15 -11 -48 -37 -73 -58 -84 -72 -95 -81
-175 -146 -44 -35 -83 -69 -87 -75 -9 -12 -4 -43 19 -126 20 -75 40 -149 58
-215 8 -30 22 -80 32 -110 9 -30 14 -58 10 -61 -3 -3 -34 4 -69 15 -35 12 -76
26 -93 31 -31 8 -68 21 -143 49 -28 10 -44 23 -46 36 -7 38 -37 180 -51 245
-9 36 -15 79 -15 97 0 68 -34 34 -61 -62 -4 -16 -23 -72 -40 -122 l-32 -93
-37 0 c-20 0 -40 4 -46 9 -5 5 -25 14 -44 20 -92 27 -145 49 -154 63 -7 12 -5
28 6 55 20 49 38 100 48 138 5 17 25 75 45 130 20 55 40 114 45 130 20 69 63
192 76 217 8 14 14 33 14 41 0 9 9 36 20 61 18 44 21 45 52 39 18 -3 45 -12
60 -19z m3841 -197 c11 -45 25 -102 33 -126 8 -25 14 -54 14 -67 0 -12 7 -35
15 -50 8 -16 15 -41 15 -56 0 -15 5 -39 11 -55 12 -30 37 -129 45 -178 3 -16
11 -52 19 -80 43 -155 44 -152 -22 -166 -44 -9 -106 -25 -181 -47 l-53 -15
-178 176 c-97 98 -184 177 -191 177 -11 0 -11 -3 -2 -12 7 -7 12 -22 12 -35 0
-12 6 -37 14 -55 13 -29 59 -206 73 -280 6 -33 -11 -43 -95 -57 -33 -5 -69
-14 -79 -19 -31 -16 -96 -22 -110 -10 -7 6 -13 20 -13 32 0 11 -6 41 -14 66
-16 51 -33 116 -46 175 -9 43 -24 102 -45 180 -7 28 -20 77 -28 110 -9 33 -23
87 -32 120 -9 33 -17 80 -18 105 l-2 45 55 16 c99 29 154 42 196 47 45 4 30
17 318 -277 78 -80 107 -96 81 -43 -7 15 -20 54 -29 87 -39 159 -48 194 -64
244 -15 51 -15 54 3 67 10 8 28 14 39 14 10 0 42 6 70 14 179 51 167 54 189
-47z m-2879 -98 c33 -4 63 -12 67 -16 4 -4 10 -62 13 -128 3 -66 9 -177 13
-247 3 -71 9 -128 13 -128 13 0 30 25 30 44 0 12 19 73 41 136 22 63 44 129
48 145 4 17 13 40 19 52 7 12 12 31 12 42 0 12 9 30 20 41 17 17 28 19 102 13
46 -3 90 -9 99 -14 18 -9 38 -179 48 -417 6 -144 20 -186 32 -95 4 26 11 59
17 73 5 14 18 52 27 85 10 33 23 78 30 100 6 22 20 67 29 100 10 33 24 75 32
94 14 32 17 33 52 27 20 -4 81 -11 136 -16 132 -11 137 -16 96 -106 -47 -102
-62 -136 -76 -169 -7 -16 -27 -60 -43 -98 -17 -37 -31 -70 -31 -74 0 -3 -13
-35 -30 -70 -16 -34 -30 -69 -30 -76 0 -7 -4 -17 -9 -23 -5 -5 -28 -54 -51
-109 -52 -122 -62 -136 -98 -125 -15 5 -69 11 -120 14 -52 3 -98 8 -103 12 -5
3 -9 24 -9 47 0 23 -7 87 -15 142 -8 55 -15 132 -15 172 0 39 -5 75 -10 78 -6
3 -12 0 -14 -7 -1 -7 -9 -29 -15 -48 -7 -19 -17 -48 -21 -65 -5 -16 -15 -48
-24 -70 -8 -22 -29 -78 -45 -124 -17 -46 -32 -85 -34 -88 -7 -7 -35 -6 -146 5
-119 11 -141 25 -141 90 0 37 -21 165 -46 287 -8 39 -14 84 -14 100 0 17 -6
59 -14 95 -27 124 -54 310 -48 328 4 12 118 7 226 -9z m3565 -41 c41 -94 50
-117 56 -150 6 -33 5 -35 -37 -52 -24 -11 -57 -25 -75 -32 -17 -8 -34 -14 -38
-14 -5 0 -48 -16 -96 -35 -49 -19 -95 -35 -103 -35 -7 0 -23 24 -35 53 -12 28
-26 61 -31 72 -32 78 -33 85 -14 100 11 8 33 19 49 24 17 5 55 19 85 31 30 12
66 25 80 30 14 5 48 18 75 28 28 11 53 21 58 21 4 1 16 -18 26 -41z m-1978
-24 c98 -29 185 -80 235 -137 33 -37 75 -119 98 -192 31 -95 14 -243 -39 -344
-26 -52 -122 -147 -177 -175 -67 -36 -179 -65 -243 -66 -49 0 -151 25 -210 51
-67 30 -185 135 -185 165 0 4 -6 15 -13 23 -35 43 -49 118 -45 243 3 115 5
127 36 191 44 91 109 153 217 206 105 51 229 64 326 35z"/>
<path d="M6296 12793 c-3 -3 -6 -29 -6 -57 -1 -28 -5 -71 -11 -96 -5 -25 -12
-66 -16 -92 -6 -54 -3 -55 80 -42 42 7 48 28 23 86 -27 64 -46 133 -46 165 0
31 -11 49 -24 36z"/>
<path d="M5182 12683 c-33 -6 -37 -27 -17 -78 14 -38 21 -45 44 -45 29 0 81
45 81 71 0 8 -9 25 -20 37 -20 21 -39 24 -88 15z"/>
<path d="M5270 12381 c-30 -8 -37 -39 -21 -92 17 -57 30 -63 85 -38 52 23 72
53 62 94 -10 39 -62 54 -126 36z"/>
<path d="M7191 10162 c-31 -5 -92 -43 -126 -79 -25 -26 -26 -33 -22 -101 3
-61 8 -77 30 -100 40 -42 87 -139 87 -181 0 -39 32 -81 61 -81 20 0 89 -69 89
-88 0 -8 -11 -27 -25 -44 -14 -16 -25 -39 -25 -50 0 -17 44 -100 100 -188 20
-31 216 -366 223 -380 4 -8 16 -28 27 -45 10 -16 31 -52 46 -80 14 -27 31 -59
37 -70 47 -80 77 -134 89 -155 7 -14 76 -119 153 -233 77 -115 145 -216 150
-225 11 -18 191 -286 262 -390 24 -35 43 -66 43 -69 0 -4 6 -14 13 -22 8 -9
27 -50 44 -91 104 -253 127 -296 240 -439 69 -87 179 -191 203 -191 39 0 172
-41 209 -64 71 -45 89 -98 97 -286 3 -80 12 -168 20 -197 8 -28 14 -64 14 -81
0 -16 12 -60 26 -98 14 -38 29 -80 34 -94 5 -14 18 -50 30 -80 13 -30 26 -86
30 -125 5 -38 13 -90 19 -115 6 -25 11 -65 11 -89 0 -25 7 -83 16 -129 21
-115 14 -182 -32 -275 -8 -16 -14 -36 -14 -46 0 -9 -4 -21 -8 -26 -10 -12 -43
-99 -70 -185 -29 -91 -43 -130 -57 -165 -12 -31 -34 -116 -56 -217 -17 -81
-12 -85 119 -90 96 -3 113 -7 160 -33 70 -38 85 -67 72 -136 -6 -28 -10 -100
-10 -160 0 -103 -1 -110 -30 -152 -59 -88 -59 -107 -4 -238 23 -53 23 -61 13
-136 -20 -138 3 -181 103 -197 22 -4 53 -13 69 -21 15 -8 47 -15 71 -15 57 1
150 33 167 59 29 44 -10 119 -91 173 -14 9 -34 34 -44 55 -17 34 -19 58 -16
208 2 119 8 192 20 245 l18 75 39 0 40 0 3 52 c2 29 9 56 17 63 8 7 15 20 15
29 0 9 7 25 15 35 8 11 15 29 15 41 0 12 7 30 15 41 8 10 15 28 15 39 0 10 6
37 14 60 34 101 76 291 76 347 0 13 6 44 14 69 7 24 21 78 30 119 54 260 51
211 51 750 0 447 -2 515 -18 590 -10 47 -25 119 -33 160 -9 41 -22 102 -29
135 -8 33 -16 89 -19 125 -3 36 -15 101 -27 145 -12 44 -25 98 -29 120 -10 45
-25 105 -46 181 -8 28 -14 78 -14 112 0 55 3 63 26 78 22 15 33 16 88 6 72
-14 185 -16 203 -4 8 5 12 43 11 119 0 61 3 116 6 122 4 6 23 11 42 11 82 0
97 35 83 193 -10 121 -19 138 -81 152 -15 4 -32 13 -39 21 -21 25 -65 17 -89
-16 -12 -17 -26 -28 -31 -24 -12 7 -4 206 10 254 6 19 11 79 11 133 l0 97 66
66 c37 36 90 81 120 101 57 38 70 71 49 122 -8 20 -6 26 9 35 11 6 36 25 55
43 l36 31 0 92 0 92 -39 34 c-22 19 -44 34 -50 34 -6 0 -24 7 -40 15 -49 26
-114 21 -176 -13 -46 -25 -57 -36 -66 -68 -10 -34 -15 -39 -59 -50 -26 -7 -52
-17 -58 -23 -6 -6 -19 -11 -29 -11 -10 0 -59 -20 -109 -45 -50 -25 -100 -45
-111 -45 -19 0 -20 5 -16 63 4 47 15 84 48 152 l44 90 -2 158 c-2 185 -10 207
-104 299 -77 76 -115 94 -216 102 -77 6 -87 5 -160 -25 -125 -52 -136 -63
-197 -205 -14 -35 -16 -58 -10 -140 7 -103 28 -201 45 -218 16 -16 12 -53 -7
-61 -10 -4 -42 -11 -71 -15 -62 -11 -157 -52 -190 -83 -36 -33 -91 -120 -114
-179 -11 -29 -26 -108 -34 -177 -7 -68 -18 -149 -24 -179 -5 -31 -10 -89 -10
-129 0 -40 -3 -73 -6 -73 -13 0 -44 22 -44 31 0 14 -48 76 -127 164 -47 51
-80 103 -125 195 -60 121 -123 221 -217 345 -108 142 -153 191 -417 448 -119
115 -135 127 -168 127 -20 0 -53 -9 -73 -20 -68 -36 -69 -35 -147 155 -7 17
-20 46 -28 65 -37 81 -48 124 -48 179 0 79 -13 92 -100 103 -14 2 -36 2 -49 0z"/>
<path d="M6355 10150 c-16 -4 -43 -13 -60 -21 -28 -13 -31 -20 -41 -94 -11
-88 -18 -113 -41 -165 -24 -53 -41 -93 -89 -207 -13 -33 -23 -43 -39 -43 -13
0 -28 6 -34 13 -6 8 -29 20 -50 27 -57 18 -87 1 -201 -117 -53 -54 -127 -127
-165 -164 -190 -178 -371 -420 -480 -642 -45 -93 -74 -137 -134 -204 -41 -46
-92 -108 -111 -136 -20 -29 -41 -52 -46 -52 -5 0 -12 52 -15 115 -4 63 -12
147 -18 185 -5 39 -10 96 -11 127 0 88 -66 240 -130 303 -52 51 -144 95 -199
95 -30 0 -55 7 -71 20 -23 18 -24 21 -12 52 34 84 62 310 43 345 -5 10 -22 46
-36 80 -28 65 -50 90 -100 115 -92 47 -108 51 -218 49 -125 -2 -147 -11 -237
-103 -85 -86 -90 -102 -93 -295 -2 -156 0 -171 20 -208 64 -117 88 -207 65
-243 -10 -15 -60 1 -134 42 -26 14 -53 26 -60 26 -7 0 -38 12 -68 26 -30 15
-68 30 -85 33 -25 6 -31 13 -35 41 -5 31 -12 38 -82 73 -74 37 -78 38 -107 23
-16 -9 -38 -16 -48 -16 -51 -2 -125 -72 -138 -131 -16 -71 39 -199 85 -199 27
0 31 -12 18 -52 -16 -53 -5 -79 48 -112 26 -17 80 -62 120 -101 l73 -71 4
-115 c3 -62 10 -167 17 -232 10 -93 10 -121 0 -130 -9 -9 -18 -5 -39 21 -33
39 -53 40 -93 7 -16 -14 -37 -25 -47 -25 -38 0 -51 -33 -62 -152 -10 -101 -9
-118 5 -146 15 -29 21 -32 60 -32 24 0 48 -6 54 -13 7 -7 13 -66 14 -133 l3
-119 82 -3 c59 -2 91 2 112 13 43 22 84 19 109 -8 27 -28 30 -103 7 -184 -8
-29 -22 -77 -30 -106 -8 -30 -15 -61 -15 -69 0 -9 -6 -38 -14 -64 -32 -109
-46 -173 -46 -213 0 -39 -7 -80 -40 -226 -6 -27 -15 -77 -21 -110 -5 -33 -14
-73 -20 -90 -16 -42 -30 -826 -18 -980 12 -154 30 -261 79 -460 7 -27 15 -63
17 -80 10 -76 36 -215 49 -260 34 -119 88 -274 110 -318 14 -29 24 -66 24 -92
0 -52 11 -62 45 -39 15 10 29 13 34 8 24 -28 56 -356 45 -449 -9 -67 -36 -118
-81 -152 -94 -70 -111 -146 -43 -186 44 -26 165 -33 220 -12 25 10 62 20 83
22 24 3 44 14 58 32 20 24 21 34 15 141 -7 110 -6 117 19 169 38 77 44 144 16
181 -11 16 -21 32 -21 36 0 4 -8 16 -17 27 -15 16 -19 47 -24 190 -5 119 -3
176 5 189 6 10 43 34 82 53 66 33 77 35 169 35 l98 0 -7 67 c-8 76 -21 126
-78 293 -22 63 -43 129 -48 145 -4 17 -18 55 -30 85 -79 205 -84 224 -84 300
0 76 13 189 39 355 8 50 16 106 18 125 5 38 22 89 43 132 8 14 14 34 14 43 0
9 6 29 14 43 25 50 38 97 47 164 4 38 11 73 15 79 4 7 11 82 15 168 11 216 29
259 132 308 36 18 86 33 120 36 62 6 87 21 162 94 71 70 215 257 215 280 0 3
6 14 13 22 8 9 35 68 61 131 27 63 54 129 61 145 8 17 16 37 20 45 10 26 140
226 155 240 11 10 456 677 467 700 7 14 83 148 103 180 5 8 20 35 33 60 14 25
34 61 46 80 11 19 24 42 28 50 4 8 59 102 123 210 64 107 119 202 123 210 8
15 14 25 54 89 24 38 18 78 -17 116 -11 12 -20 26 -20 31 0 15 60 69 97 88 42
21 63 53 63 94 0 37 16 72 72 154 30 45 40 70 44 116 6 52 4 63 -17 92 -41 56
-134 101 -184 90z"/>
<path d="M6974 8541 c-60 -43 -74 -70 -74 -146 0 -74 -12 -105 -40 -105 -22 0
-60 50 -60 80 0 17 -5 21 -27 18 -19 -2 -39 -18 -65 -52 -20 -28 -48 -56 -62
-63 -21 -11 -26 -21 -26 -51 0 -21 8 -49 18 -62 14 -21 17 -49 18 -163 1 -155
2 -156 87 -185 52 -18 80 -12 88 18 20 74 29 126 29 175 0 47 3 55 19 55 32 0
44 -26 37 -78 -8 -55 -7 -386 3 -552 5 -104 8 -115 26 -119 11 -2 36 -16 57
-32 47 -38 117 -49 143 -23 16 16 17 29 11 114 -15 230 -19 621 -7 761 11 135
23 185 57 251 19 35 18 72 -3 116 -26 59 -49 72 -124 72 -57 0 -71 -4 -105
-29z"/>
<path d="M6490 8543 c-8 -3 -44 -25 -80 -49 -53 -35 -76 -45 -125 -50 -81 -8
-103 -20 -111 -61 -9 -47 3 -82 38 -115 46 -43 96 -39 213 18 138 66 165 110
135 213 -13 46 -32 58 -70 44z"/>
<path d="M6466 8111 c-11 -17 -129 -66 -233 -97 -70 -21 -75 -32 -46 -87 23
-44 23 -169 0 -195 -19 -21 -23 -102 -7 -133 17 -31 113 -26 239 13 126 39
161 67 161 126 0 43 -24 112 -40 112 -5 0 -27 -7 -49 -16 -21 -8 -54 -14 -73
-12 -30 3 -33 6 -36 39 -3 34 0 38 40 57 24 11 54 22 68 26 14 3 35 14 47 25
21 20 21 22 6 73 -9 29 -17 59 -19 66 -4 14 -50 17 -58 3z"/>
<path d="M6950 6575 c-7 -8 -19 -15 -27 -15 -24 0 -102 -59 -128 -98 -24 -35
-25 -43 -25 -192 0 -85 -4 -172 -9 -193 -11 -45 -124 -172 -155 -172 -36 0
-27 23 34 85 33 33 60 66 60 72 0 6 -11 26 -25 44 -18 23 -35 34 -58 36 -46 4
-47 35 -3 119 35 67 43 103 28 125 -11 16 -97 64 -115 64 -9 0 -34 -22 -54
-49 -43 -55 -86 -87 -140 -106 -28 -10 -39 -19 -41 -37 -4 -32 19 -51 71 -57
39 -6 42 -9 45 -39 3 -24 -4 -41 -25 -66 -15 -18 -35 -46 -44 -62 -17 -33
-143 -121 -212 -150 -55 -22 -77 -56 -84 -129 -5 -52 -4 -55 20 -64 32 -13 95
-3 127 20 69 48 143 89 149 84 3 -4 6 -69 7 -145 0 -99 4 -143 13 -154 10 -12
33 -16 93 -16 102 0 123 -13 167 -101 28 -56 45 -76 89 -106 l55 -38 131 1
c126 1 135 2 185 29 62 34 114 95 109 127 -4 31 -65 37 -104 11 -22 -14 -49
-18 -138 -18 -133 1 -164 14 -198 85 -12 25 -26 48 -32 52 -20 14 -75 8 -110
-11 -41 -23 -46 -17 -46 60 0 54 13 89 33 89 7 0 41 25 77 55 36 31 72 54 80
53 12 -3 16 -24 20 -97 7 -118 10 -121 136 -121 71 0 94 3 105 16 10 12 14 95
17 367 3 330 10 417 33 417 16 0 11 136 -6 150 -8 7 -15 17 -15 22 0 5 -10 22
-22 38 -24 33 -49 38 -68 15z"/>
<path d="M6780 4511 c-19 -4 -56 -17 -82 -29 -26 -12 -55 -22 -66 -22 -10 0
-49 -9 -86 -21 -63 -20 -69 -20 -116 -5 -63 21 -73 20 -94 -3 -14 -16 -17 -32
-13 -83 2 -35 9 -81 15 -103 32 -121 34 -138 12 -182 -23 -49 -24 -63 -6 -122
13 -47 57 -81 102 -81 31 0 50 -69 30 -108 -20 -38 -113 -75 -304 -121 -83
-20 -142 -51 -142 -75 0 -22 22 -80 42 -108 10 -15 39 -37 63 -49 44 -22 45
-22 87 -5 24 10 50 22 58 27 59 35 98 47 236 73 39 7 78 17 85 22 8 5 122 14
254 21 283 15 323 20 334 42 5 9 11 58 15 109 8 110 1 118 -72 79 -34 -18 -80
-29 -168 -41 -172 -23 -203 -22 -238 10 -28 26 -28 28 -21 103 7 81 23 111 60
111 12 0 40 9 63 20 l42 20 0 65 c0 59 -2 65 -29 84 -64 46 -115 46 -198 4
-26 -14 -37 -15 -57 -5 -24 10 -26 17 -26 70 0 81 13 91 132 102 101 9 196 28
216 43 6 5 12 23 12 39 0 16 7 45 15 65 23 55 15 63 -57 62 -35 -1 -79 -5 -98
-8z"/>
<path d="M10403 11516 c-8 -15 -93 -85 -156 -129 -18 -12 -16 -15 19 -50 21
-20 45 -37 54 -37 13 0 77 120 112 212 9 22 -17 26 -29 4z"/>
<path d="M10518 2379 c-28 -16 -78 -95 -78 -124 0 -63 54 -141 122 -176 47
-24 69 -24 116 0 41 21 75 62 85 103 16 62 -28 151 -95 192 -29 18 -123 21
-150 5z"/>
<path d="M3379 2012 c-19 -20 -99 -88 -145 -121 -44 -32 -43 -53 6 -85 44 -29
67 -26 77 13 6 24 35 94 70 169 18 38 14 49 -8 24z"/>
<path d="M9658 1763 c-47 -20 -57 -46 -29 -84 12 -15 21 -31 21 -33 0 -6 69
-122 103 -173 12 -18 27 -33 32 -33 6 0 32 21 57 46 70 68 74 140 12 221 -53
70 -117 88 -196 56z"/>
<path d="M7102 980 c-67 -15 -112 -80 -112 -160 0 -104 59 -170 154 -170 47 0
60 4 90 30 44 39 60 87 53 156 -11 102 -91 165 -185 144z"/>
</g>
</svg>
