<?xml version="1.0" standalone="no"?>
<!DOCTYPE svg PUBLIC "-//W3C//DTD SVG 20010904//EN"
 "http://www.w3.org/TR/2001/REC-SVG-20010904/DTD/svg10.dtd">
<svg version="1.0" xmlns="http://www.w3.org/2000/svg"
 width="300.000000pt" height="300.000000pt" viewBox="0 0 300.000000 300.000000"
 preserveAspectRatio="xMidYMid meet">
<metadata>
Created by potrace 1.10, written by Peter Selinger 2001-2011
</metadata>
<g transform="translate(0.000000,300.000000) scale(0.100000,-0.100000)"
fill="#4171e1" stroke="none">
<path d="M847 2309 c-72 -19 -139 -83 -157 -148 -7 -27 -10 -249 -8 -683 l3
-643 24 -42 c27 -47 80 -88 132 -103 19 -6 171 -10 341 -10 l308 0 0 293 0
293 -85 0 c-66 -1 -88 3 -95 14 -5 8 -10 61 -10 117 0 98 1 103 25 119 19 12
42 15 95 12 l70 -4 0 123 c0 202 43 293 166 354 43 21 66 24 182 27 94 3 137
0 147 -8 19 -16 21 -190 3 -208 -7 -7 -43 -12 -90 -12 -88 0 -134 -17 -143
-53 -3 -12 -7 -67 -8 -122 l-2 -100 122 0 c67 0 125 -3 129 -8 18 -18 -9 -226
-31 -243 -9 -6 -56 -10 -117 -9 l-103 2 0 -293 0 -294 198 0 c215 0 245 6 300
58 16 15 38 44 48 65 19 35 19 65 19 693 0 652 0 657 -21 701 -23 48 -82 98
-127 108 -36 8 -1286 12 -1315 4z m1330 -47 c44 -23 64 -43 87 -90 16 -30 17
-94 16 -678 0 -493 -3 -650 -13 -667 -19 -34 -69 -87 -83 -87 -7 0 -14 -6 -16
-12 -3 -9 -53 -13 -194 -13 l-189 0 -3 258 -2 257 77 1 c104 1 125 8 144 47
19 36 35 197 24 232 -11 33 -64 50 -160 50 l-85 0 0 83 c0 110 13 124 120 126
104 3 120 19 121 121 2 118 0 129 -21 150 -18 18 -33 20 -141 20 -67 0 -140
-5 -163 -12 -67 -19 -144 -74 -176 -125 -43 -68 -52 -104 -59 -238 l-6 -120
-68 -5 c-60 -4 -72 -9 -94 -34 -24 -28 -25 -34 -21 -137 4 -137 13 -149 115
-158 l68 -6 3 -249 c2 -193 -1 -251 -10 -258 -20 -12 -556 -10 -601 3 -51 14
-112 75 -125 124 -14 54 -15 1276 -1 1313 11 29 62 87 94 105 31 18 176 22
772 20 524 -2 554 -3 590 -21z"/>
</g>
</svg>
