 <svg  version="1.0" xmlns="http://www.w3.org/2000/svg"  width="900.000000pt" height="900.000000pt" viewBox="0 0 900.000000 900.000000"  preserveAspectRatio="xMidYMid meet">  <g transform="translate(0.000000,900.000000) scale(0.100000,-0.100000)" fill="#0945fb" stroke="none"> <path d="M3779 8216 c-2 -2 -195 -7 -429 -11 -234 -4 -443 -9 -465 -10 -22 -2 -123 -8 -225 -14 -273 -17 -510 -50 -605 -86 -33 -12 -87 -30 -120 -40 -33 -10 -85 -29 -115 -42 -30 -13 -71 -31 -90 -40 -111 -49 -205 -109 -298 -189 -99 -86 -240 -233 -268 -281 -14 -22 -31 -44 -39 -47 -8 -3 -15 -12 -15 -21 0 -8 -4 -15 -9 -15 -5 0 -32 -48 -60 -107 -29 -60 -63 -131 -77 -158 -13 -28 -24 -55 -24 -62 0 -6 -20 -73 -45 -149 -28 -87 -49 -171 -55 -228 -6 -50 -15 -118 -20 -151 -5 -33 -14 -152 -19 -265 -6 -113 -14 -234 -17 -270 -3 -36 -7 -378 -9 -760 -2 -382 -5 -762 -6 -845 -1 -82 -2 -258 -2 -390 0 -132 0 -253 0 -270 -2 -75 14 -888 17 -894 2 -3 7 -82 10 -176 7 -185 23 -350 36 -375 4 -8 11 -42 14 -75 10 -92 26 -163 51 -235 13 -36 30 -89 39 -119 9 -30 28 -70 42 -88 14 -19 23 -41 20 -49 -5 -14 39 -108 67 -144 7 -8 21 -31 31 -50 30 -53 132 -183 161 -203 14 -10 25 -24 25 -31 0 -17 43 -56 62 -56 9 0 19 -9 23 -20 5 -16 164 -150 179 -150 3 0 30 -17 60 -38 30 -22 76 -47 103 -56 26 -10 66 -26 88 -36 93 -43 284 -110 330 -116 28 -3 64 -10 80 -14 79 -23 340 -53 480 -56 66 -1 194 -4 285 -7 91 -3 768 -5 1505 -6 1214 -2 1459 1 1950 24 116 6 298 32 327 46 10 5 52 14 94 19 42 5 82 14 88 19 6 5 56 23 111 41 55 17 114 37 130 45 109 49 208 103 260 141 33 24 79 57 103 73 23 16 61 46 85 68 54 50 197 209 197 218 0 4 12 22 28 40 15 17 35 45 44 61 10 16 22 36 27 44 6 8 18 33 27 55 10 22 22 46 28 53 15 20 66 151 66 170 0 9 7 26 15 36 8 11 15 31 15 46 0 14 7 36 16 48 9 13 22 62 31 110 8 48 21 121 29 162 14 74 45 371 41 400 -1 8 2 62 6 120 5 58 10 150 12 205 9 211 4 2731 -5 2950 -5 127 -12 293 -15 370 -7 149 -14 217 -40 360 -9 50 -22 122 -29 160 -6 39 -20 82 -29 96 -10 14 -24 55 -31 90 -22 106 -101 281 -157 348 -16 20 -29 41 -29 47 0 18 -105 148 -134 168 -14 9 -26 22 -26 28 0 14 -50 68 -63 68 -5 0 -27 18 -50 40 -36 37 -91 79 -202 158 -38 27 -106 62 -218 111 -111 49 -350 121 -440 131 -51 6 -123 15 -162 20 -154 19 -628 40 -1140 50 -516 10 -1647 14 -1656 6z m2226 -111 c121 -8 265 -15 320 -15 127 0 457 -45 550 -75 22 -7 67 -21 100 -30 210 -59 413 -170 565 -310 192 -177 302 -328 385 -530 9 -22 22 -53 29 -70 12 -28 27 -75 59 -190 43 -152 65 -306 77 -530 5 -93 14 -235 19 -315 7 -90 11 -674 11 -1545 0 -1128 -3 -1443 -15 -1620 -8 -121 -15 -258 -15 -305 0 -47 -5 -102 -11 -122 -5 -21 -14 -75 -19 -120 -4 -46 -14 -105 -20 -133 -19 -83 -67 -250 -80 -280 -5 -11 -19 -45 -30 -75 -12 -30 -26 -63 -31 -73 -106 -199 -144 -252 -279 -387 -157 -157 -211 -196 -407 -299 -10 -5 -38 -17 -63 -26 -25 -9 -58 -23 -75 -30 -16 -7 -57 -21 -90 -30 -33 -9 -80 -23 -105 -30 -75 -22 -191 -44 -263 -50 -37 -3 -79 -10 -93 -15 -14 -6 -71 -10 -127 -10 -56 0 -192 -7 -302 -15 -161 -12 -474 -14 -1605 -14 -773 0 -1457 4 -1520 9 -63 5 -189 12 -280 15 -91 3 -192 11 -225 17 -33 5 -94 14 -135 18 -142 16 -342 70 -495 135 -59 25 -205 100 -229 118 -185 133 -323 272 -420 422 -79 124 -95 153 -130 245 -10 25 -24 59 -30 75 -24 57 -66 207 -90 325 -24 117 -36 247 -46 480 -5 118 -14 276 -20 350 -6 81 -10 644 -10 1415 0 1011 3 1328 15 1510 8 127 15 273 15 325 0 142 45 451 85 580 12 41 26 89 29 105 4 17 13 44 20 60 8 17 18 41 24 55 57 145 146 292 246 405 85 97 81 93 184 182 109 94 195 144 377 223 28 11 59 25 70 30 11 5 31 12 45 15 14 4 61 17 105 30 166 48 419 81 695 91 107 3 233 10 280 14 47 4 681 8 1410 8 1073 1 1367 -1 1545 -13z"/> <path d="M4608 7265 c-7 -8 -211 -13 -608 -15 -359 -2 -736 -18 -853 -35 -60 -9 -115 -14 -123 -11 -8 3 -22 2 -32 -3 -46 -24 -102 -42 -155 -51 -32 -5 -101 -30 -154 -55 -52 -25 -102 -45 -109 -45 -7 0 -47 -22 -87 -50 -41 -27 -78 -50 -84 -50 -5 0 -37 -27 -71 -60 -34 -33 -73 -62 -87 -66 -14 -3 -25 -10 -25 -15 0 -8 -81 -98 -153 -171 -21 -21 -36 -42 -33 -47 3 -4 -3 -16 -14 -26 -11 -10 -20 -22 -20 -27 0 -5 -18 -33 -40 -63 -22 -30 -40 -61 -40 -68 0 -8 -7 -20 -15 -27 -8 -7 -15 -23 -15 -36 0 -13 -9 -41 -20 -61 -11 -21 -20 -44 -20 -52 0 -7 -9 -41 -19 -75 -32 -100 -53 -187 -62 -256 -5 -36 -10 -78 -13 -95 -2 -16 -12 -142 -21 -280 -17 -264 -21 -999 -11 -1800 5 -392 17 -548 60 -785 14 -77 50 -187 67 -205 5 -5 9 -21 9 -37 0 -26 18 -78 31 -88 11 -8 69 -119 69 -131 0 -6 14 -27 30 -46 17 -18 30 -40 30 -48 0 -8 5 -15 10 -15 6 0 10 -6 10 -13 0 -7 16 -28 35 -47 19 -19 35 -37 35 -42 0 -10 154 -168 164 -168 4 0 17 -11 29 -24 25 -27 152 -116 166 -116 5 0 11 -6 14 -14 3 -8 22 -20 43 -26 21 -7 56 -25 80 -39 23 -15 66 -34 95 -44 30 -9 77 -24 104 -33 28 -9 79 -22 115 -29 36 -7 90 -20 120 -28 30 -9 64 -16 75 -16 11 1 83 -4 160 -11 77 -7 176 -14 220 -15 44 -2 121 -6 170 -10 94 -6 105 -6 220 -5 39 0 196 1 350 1 154 1 303 2 330 2 28 0 70 0 95 -2 166 -8 1019 13 1070 26 14 4 39 8 55 9 92 6 164 16 214 30 31 9 65 17 77 17 11 1 27 7 35 13 8 7 32 14 54 17 67 8 275 83 275 99 0 4 9 8 20 8 11 0 29 9 40 20 11 11 23 20 26 20 4 0 32 20 62 45 30 25 61 45 69 45 20 0 303 286 303 305 0 8 20 44 45 79 25 36 45 70 45 77 0 6 13 33 28 58 16 25 32 64 36 85 4 22 18 54 32 71 13 18 24 46 24 63 0 17 8 50 18 74 19 44 32 96 38 158 2 19 6 46 8 60 35 174 45 416 48 1115 0 166 -1 1056 -2 1070 -1 11 -3 61 -4 110 -8 275 -52 663 -81 709 -7 11 -16 42 -19 68 -4 26 -11 50 -17 53 -5 4 -9 17 -9 30 0 13 -4 26 -9 30 -5 3 -15 22 -22 43 -6 20 -17 44 -24 52 -20 24 -84 148 -79 153 9 8 -36 75 -62 92 -14 9 -31 29 -38 43 -28 62 -323 341 -353 334 -6 -1 -26 11 -44 28 -19 16 -40 30 -47 30 -8 0 -25 9 -39 20 -14 11 -35 20 -47 20 -11 0 -48 13 -81 30 -33 16 -86 35 -117 40 -32 6 -70 17 -85 25 -16 8 -42 15 -59 15 -17 0 -44 6 -60 14 -16 8 -73 17 -127 20 -53 3 -101 7 -106 10 -5 3 -87 8 -182 11 -96 3 -219 8 -274 11 -55 4 -208 8 -340 10 -132 2 -263 6 -290 9 -28 4 -53 3 -57 0z m1057 -117 c55 -5 141 -14 190 -18 50 -4 103 -12 118 -19 16 -6 42 -11 58 -11 17 0 40 -5 52 -12 12 -6 38 -15 57 -19 19 -4 51 -13 70 -20 31 -11 59 -23 180 -77 154 -70 376 -258 489 -417 28 -38 54 -75 60 -81 16 -19 131 -262 131 -278 0 -9 6 -30 14 -48 26 -65 46 -136 46 -169 0 -19 6 -54 14 -79 36 -111 41 -294 41 -1430 0 -950 -2 -1127 -16 -1260 -9 -85 -22 -168 -28 -183 -6 -16 -11 -46 -11 -67 0 -22 -6 -54 -14 -72 -20 -49 -37 -98 -47 -141 -5 -21 -13 -45 -18 -55 -5 -9 -26 -51 -46 -92 -20 -41 -45 -88 -56 -105 -10 -16 -22 -37 -26 -45 -30 -67 -213 -263 -318 -341 -177 -131 -390 -229 -565 -258 -25 -4 -61 -12 -80 -18 -125 -40 -431 -51 -1440 -51 -1047 0 -1401 13 -1513 57 -16 6 -41 11 -57 11 -16 0 -44 6 -62 14 -45 18 -97 36 -133 45 -75 19 -277 132 -375 209 -71 57 -226 218 -267 279 -54 78 -71 105 -83 128 -5 11 -14 27 -20 35 -28 44 -81 177 -113 290 -9 30 -23 78 -32 107 -8 28 -15 71 -15 93 0 23 -7 81 -15 129 -17 99 -31 601 -34 1216 -2 476 16 1292 31 1360 6 28 14 82 18 120 7 69 22 142 42 200 5 17 14 46 18 65 15 62 77 205 135 309 54 97 177 240 301 352 26 23 103 77 172 121 60 38 218 110 292 133 30 9 69 21 85 27 17 6 53 14 80 18 28 4 63 13 78 19 16 6 58 11 95 11 37 0 85 5 107 12 90 25 2182 31 2410 6z"/> <path d="M3500 6669 c-252 -18 -357 -28 -383 -38 -16 -6 -40 -11 -55 -11 -15 0 -40 -7 -56 -15 -15 -8 -34 -15 -42 -15 -39 0 -231 -100 -288 -150 -108 -95 -226 -238 -226 -274 0 -8 -7 -19 -15 -26 -8 -7 -15 -18 -15 -26 0 -7 -6 -28 -14 -46 -45 -106 -65 -182 -77 -293 -5 -44 -13 -118 -18 -165 -12 -105 -13 -2154 -1 -2260 4 -41 13 -121 19 -178 5 -56 13 -108 17 -114 4 -6 11 -28 15 -47 16 -74 60 -184 114 -279 56 -101 286 -312 339 -312 8 0 19 -7 26 -15 7 -8 19 -15 27 -15 8 0 27 -6 41 -14 43 -22 124 -46 155 -46 16 0 38 -5 50 -12 12 -6 60 -15 107 -20 47 -4 121 -12 165 -17 106 -13 2079 -13 2210 -1 55 6 141 14 191 19 50 5 100 14 112 20 11 6 31 11 44 11 36 0 120 29 228 80 159 75 326 243 397 400 44 98 83 215 83 248 0 12 6 48 14 80 31 121 39 363 43 1227 3 584 1 915 -7 1030 -6 94 -15 224 -20 290 -4 66 -13 133 -19 148 -6 16 -11 40 -11 55 0 37 -26 116 -74 225 -8 17 -17 39 -20 47 -63 149 -280 345 -450 406 -195 70 -245 79 -626 104 -167 11 -1823 10 -1980 -1z m2040 -84 c8 -5 44 -10 80 -12 84 -3 229 -22 258 -34 13 -5 33 -9 45 -9 35 -1 192 -49 196 -61 2 -6 22 -19 45 -29 57 -24 274 -239 282 -279 4 -16 12 -32 20 -35 19 -7 56 -85 49 -103 -3 -9 1 -25 8 -37 24 -37 65 -168 77 -246 7 -41 14 -201 17 -355 7 -410 6 -1690 -1 -1830 -3 -66 -8 -169 -12 -230 -3 -60 -12 -135 -21 -165 -8 -30 -21 -82 -28 -115 -27 -120 -93 -275 -117 -275 -7 0 -21 -18 -31 -39 -9 -21 -28 -43 -42 -49 -14 -6 -25 -19 -25 -27 0 -18 -41 -58 -85 -82 -16 -8 -42 -28 -57 -43 -15 -15 -39 -31 -54 -34 -15 -4 -33 -15 -40 -24 -10 -13 -15 -14 -27 -3 -13 10 -17 9 -27 -8 -6 -12 -21 -21 -35 -21 -13 0 -27 -4 -30 -10 -3 -5 -21 -10 -40 -10 -19 0 -44 -4 -57 -9 -66 -25 -104 -31 -229 -37 -75 -3 -170 -8 -210 -11 -41 -2 -135 -6 -209 -7 -350 -8 -356 -8 -795 -10 -304 -1 -802 8 -832 14 -22 6 -56 5 -82 -1 -32 -7 -47 -6 -58 3 -8 6 -49 13 -91 14 -175 6 -229 14 -332 51 -25 9 -59 16 -76 17 -17 1 -37 6 -45 11 -14 10 -60 36 -102 58 -27 14 -64 42 -152 116 -42 35 -66 64 -70 82 -4 16 -11 29 -15 29 -13 0 -60 53 -60 67 0 7 -18 53 -40 103 -22 50 -40 99 -40 108 0 9 -7 26 -15 36 -8 10 -12 22 -10 27 3 4 1 19 -5 33 -12 32 -21 123 -25 246 -1 52 -6 183 -11 290 -18 456 -5 1949 17 1976 6 7 12 54 14 103 3 50 8 99 13 108 5 10 13 40 17 68 4 27 15 66 26 87 10 20 19 46 19 57 0 11 4 22 9 26 6 3 21 30 36 60 14 30 30 55 35 55 6 0 10 6 10 13 0 24 101 126 169 171 38 25 72 50 76 56 10 16 79 49 159 75 118 40 401 77 676 88 197 8 1866 1 1880 -8z"/> <path d="M5806 6289 c-58 -16 -78 -27 -130 -76 -83 -78 -121 -146 -135 -242 -12 -89 1 -165 43 -246 28 -53 107 -141 141 -156 11 -5 27 -13 35 -18 44 -25 120 -40 197 -38 45 1 85 5 89 10 4 4 16 7 27 7 22 0 157 87 157 101 0 6 15 25 33 44 28 29 38 52 57 132 20 86 22 105 12 168 -18 117 -48 167 -157 265 -29 25 -81 46 -149 59 -79 15 -137 12 -220 -10z m264 -80 c59 -29 143 -114 169 -173 27 -62 29 -187 4 -243 -45 -99 -146 -182 -245 -201 -63 -12 -171 1 -199 25 -8 7 -20 13 -26 13 -15 0 -102 89 -121 124 -87 163 -28 354 139 446 49 27 63 30 145 30 72 0 99 -4 134 -21z"/> <path d="M4639 5946 c-2 -2 -74 -7 -159 -9 -85 -3 -168 -10 -183 -16 -16 -6 -58 -13 -95 -16 -72 -5 -110 -14 -157 -39 -16 -8 -49 -18 -73 -22 -24 -4 -46 -13 -49 -20 -3 -8 -18 -14 -34 -14 -16 0 -29 -5 -29 -10 0 -6 -28 -24 -62 -41 -71 -34 -186 -104 -217 -133 -12 -11 -21 -25 -21 -33 0 -7 -9 -13 -19 -13 -10 0 -21 -7 -25 -15 -3 -8 -12 -15 -21 -15 -8 0 -15 -6 -15 -12 0 -15 -63 -68 -80 -68 -7 0 -9 -8 -5 -20 5 -15 2 -20 -13 -20 -13 0 -23 -12 -32 -39 -7 -22 -26 -49 -42 -61 -17 -12 -41 -45 -54 -74 -28 -59 -48 -95 -84 -151 -27 -44 -50 -107 -50 -143 0 -13 -5 -33 -12 -45 -22 -38 -37 -90 -44 -142 -3 -27 -13 -72 -21 -99 -13 -40 -14 -80 -8 -235 8 -217 10 -238 23 -254 5 -7 12 -34 16 -61 3 -27 13 -63 21 -79 8 -17 15 -40 15 -51 0 -12 9 -39 20 -61 11 -22 20 -45 20 -51 0 -16 30 -72 52 -98 10 -10 23 -35 29 -55 6 -20 19 -45 29 -56 10 -11 25 -33 33 -50 9 -16 45 -61 82 -100 37 -38 82 -87 102 -108 19 -21 50 -49 69 -62 20 -13 44 -35 55 -50 11 -14 28 -25 38 -25 10 0 26 -9 36 -20 10 -12 37 -30 59 -41 23 -11 64 -32 91 -48 100 -56 110 -61 135 -61 14 0 42 -11 63 -25 20 -14 42 -23 47 -20 5 3 17 1 27 -4 16 -8 120 -34 148 -36 6 -1 20 -4 31 -8 36 -12 313 -10 414 3 52 7 109 13 125 14 28 2 44 6 90 26 11 5 42 16 68 25 27 8 67 24 90 35 22 11 47 20 54 20 7 0 30 11 51 23 20 13 54 30 74 37 21 8 40 22 43 31 3 10 21 23 39 29 19 6 42 20 52 32 11 11 31 28 46 38 34 21 132 113 178 169 19 23 52 61 73 85 20 24 37 48 37 54 0 6 11 24 25 40 28 33 115 196 115 215 0 7 13 44 30 82 16 39 30 80 30 91 0 12 10 50 21 85 13 37 23 96 24 139 2 41 6 128 9 192 4 85 1 132 -9 173 -8 31 -15 66 -15 79 0 13 -7 43 -16 67 -8 24 -17 64 -18 89 -2 29 -21 83 -55 152 -28 60 -51 114 -51 122 0 8 -4 18 -10 21 -5 3 -10 14 -10 24 0 10 -11 26 -25 35 -14 9 -31 31 -39 49 -7 18 -26 46 -42 62 -16 17 -41 46 -56 66 -49 66 -103 121 -140 145 -21 14 -38 31 -38 39 0 8 -4 15 -10 15 -5 0 -27 16 -49 35 -21 19 -45 35 -54 35 -9 0 -18 4 -22 9 -3 6 -26 20 -51 33 -25 12 -56 33 -69 45 -14 14 -29 21 -39 17 -10 -4 -18 0 -22 10 -3 9 -14 16 -24 16 -9 0 -39 8 -66 19 -96 37 -267 81 -312 81 -16 0 -37 7 -48 15 -20 15 -28 18 -35 11z m81 -104 c36 -4 75 -13 87 -20 12 -7 32 -12 45 -12 38 0 195 -59 283 -107 17 -9 44 -24 60 -32 36 -19 120 -77 154 -106 111 -92 183 -165 248 -250 50 -66 123 -176 123 -186 0 -5 14 -37 31 -72 54 -107 59 -118 59 -135 0 -9 7 -30 15 -46 8 -15 15 -39 15 -52 0 -14 7 -41 16 -62 14 -31 17 -78 18 -287 0 -189 -3 -256 -12 -273 -8 -13 -17 -44 -22 -70 -8 -45 -15 -70 -48 -157 -23 -63 -105 -225 -119 -237 -7 -6 -13 -15 -13 -20 0 -14 -78 -113 -153 -194 -60 -65 -212 -193 -240 -203 -7 -2 -25 -14 -42 -26 -25 -18 -76 -46 -154 -85 -45 -22 -93 -40 -107 -40 -9 0 -28 -6 -42 -14 -39 -20 -106 -36 -187 -46 -38 -5 -90 -13 -115 -19 -25 -6 -72 -11 -105 -11 -63 0 -252 24 -320 41 -22 6 -56 14 -75 18 -19 5 -46 13 -60 19 -14 5 -45 18 -70 27 -74 29 -130 56 -136 66 -3 5 -11 9 -19 9 -13 0 -110 63 -190 123 -96 73 -294 294 -328 367 -4 8 -16 29 -27 45 -11 17 -22 37 -26 45 -3 8 -18 42 -33 75 -15 33 -35 87 -45 120 -10 33 -25 78 -32 100 -8 23 -14 54 -14 70 0 17 -7 55 -15 85 -18 65 -20 283 -4 350 6 25 15 70 19 100 4 30 12 69 18 85 6 17 18 55 27 85 68 222 243 479 425 623 36 29 67 55 68 59 2 5 8 8 14 8 6 0 27 13 47 28 20 16 43 32 51 35 8 4 30 16 47 27 47 28 167 78 243 101 36 11 86 26 111 34 26 8 69 16 95 16 27 1 63 5 79 10 33 9 252 3 355 -9z"/> <path d="M4390 5359 c-87 -7 -186 -31 -204 -49 -5 -5 -19 -10 -30 -10 -12 -1 -39 -12 -61 -25 -22 -14 -47 -28 -55 -32 -33 -15 -138 -100 -189 -152 -54 -57 -123 -151 -141 -193 -6 -13 -14 -30 -18 -38 -27 -48 -42 -84 -42 -99 0 -10 -6 -31 -14 -47 -45 -94 -37 -397 14 -524 12 -30 25 -67 30 -81 4 -14 19 -44 34 -67 14 -23 26 -44 26 -48 0 -11 62 -87 124 -152 53 -54 195 -162 215 -162 4 0 34 -13 66 -30 32 -16 65 -30 73 -30 8 0 35 -7 61 -14 111 -35 298 -37 426 -5 22 6 51 13 65 16 24 5 139 55 170 74 8 5 22 12 30 16 29 13 125 91 171 140 51 53 129 157 129 171 0 5 7 15 15 22 8 7 15 20 15 30 0 10 7 23 15 30 8 7 15 21 15 30 0 10 6 31 14 47 29 58 39 123 43 278 4 129 1 172 -12 220 -20 70 -42 129 -61 167 -8 14 -14 31 -14 37 0 14 -81 132 -133 194 -36 44 -169 153 -207 170 -8 4 -35 18 -59 32 -24 14 -51 25 -60 25 -9 0 -25 7 -35 15 -11 8 -32 15 -46 15 -14 0 -31 5 -37 11 -10 10 -181 30 -228 27 -11 -1 -58 -5 -105 -9z m370 -123 c52 -21 106 -46 120 -56 14 -9 41 -25 61 -34 72 -34 259 -236 251 -272 -1 -7 4 -14 12 -17 8 -3 22 -32 31 -64 9 -32 27 -76 39 -98 28 -48 40 -103 26 -120 -6 -7 -6 -25 1 -50 17 -61 8 -202 -17 -255 -42 -89 -54 -118 -54 -131 0 -18 -49 -99 -60 -99 -6 0 -10 -11 -10 -25 0 -14 -4 -25 -9 -25 -5 0 -26 -22 -46 -50 -20 -27 -41 -50 -47 -50 -5 0 -31 -22 -58 -50 -27 -28 -57 -50 -69 -50 -11 0 -22 -4 -25 -8 -11 -18 -141 -75 -170 -74 -18 0 -40 -7 -53 -19 -19 -18 -37 -21 -160 -24 -124 -3 -146 -1 -223 22 -47 13 -92 29 -100 34 -8 5 -34 19 -57 30 -24 11 -43 24 -43 30 0 5 -18 16 -40 25 -22 9 -45 25 -51 35 -5 11 -15 19 -22 19 -15 0 -107 85 -107 98 0 4 -15 26 -32 48 -18 22 -39 50 -46 63 -8 13 -23 40 -34 60 -36 63 -51 127 -67 281 -15 141 14 308 69 407 17 29 30 57 30 63 0 11 20 36 67 83 17 18 36 45 42 60 6 15 25 36 43 45 17 9 41 26 52 38 12 12 41 31 66 44 25 12 57 33 72 45 14 12 45 25 69 29 24 4 48 11 55 16 34 29 93 38 244 36 l155 -1 95 -39z"/> </g> </svg> 