<?xml version="1.0" standalone="no"?>
<!DOCTYPE svg PUBLIC "-//W3C//DTD SVG 20010904//EN"
 "http://www.w3.org/TR/2001/REC-SVG-20010904/DTD/svg10.dtd">
<svg version="1.0" xmlns="http://www.w3.org/2000/svg"
 width="300.000000pt" height="300.000000pt" viewBox="0 0 300.000000 300.000000"
 preserveAspectRatio="xMidYMid meet">
<metadata>
Created by potrace 1.10, written by Peter Selinger 2001-2011
</metadata>
<g transform="translate(0.000000,300.000000) scale(0.100000,-0.100000)"
fill="#2d76eb" stroke="none">
<path d="M705 2381 c-48 -22 -69 -44 -90 -94 -13 -32 -15 -134 -15 -787 0
-653 2 -755 15 -787 20 -48 41 -71 87 -94 37 -19 67 -19 812 -17 l774 3 38 30
c79 65 74 6 74 863 0 729 -1 764 -19 800 -23 46 -46 67 -94 87 -32 13 -134 15
-789 15 -709 0 -755 -2 -793 -19z m1575 -39 c54 -26 80 -73 81 -146 4 -422 3
-586 -5 -589 -5 -2 -3 -13 3 -26 7 -13 9 -27 4 -32 -4 -4 -6 -102 -3 -216 3
-133 1 -211 -5 -215 -6 -5 -6 -8 1 -8 7 0 10 -12 7 -27 -2 -16 -3 -98 -3 -183
0 -173 -8 -200 -72 -240 -30 -19 -47 -20 -201 -18 -92 2 -167 0 -167 -4 0 -3
-12 -5 -27 -3 -47 6 -444 8 -449 2 -3 -3 -16 -2 -29 2 -13 3 -133 4 -266 1
-132 -3 -243 -1 -246 3 -3 4 -11 3 -19 -4 -8 -6 -14 -7 -14 -2 0 5 -28 7 -62
5 -53 -3 -68 0 -98 20 -69 46 -70 56 -70 402 1 169 -1 310 -3 312 -2 3 -3 19
0 37 2 18 4 217 6 444 2 399 3 412 23 440 47 64 46 64 502 61 226 -2 412 -1
412 2 0 3 150 4 332 2 290 -2 338 -5 368 -20z"/>
<path d="M1487 2272 c-14 -15 -17 -48 -17 -217 -1 -110 -4 -215 -8 -233 l-7
-33 -43 37 -43 37 -72 -7 c-142 -12 -269 -101 -333 -233 -37 -74 -45 -195 -19
-290 10 -35 24 -67 31 -70 8 -3 11 -9 8 -14 -3 -5 2 -12 10 -15 9 -3 14 -10
11 -14 -7 -12 126 -133 176 -161 24 -13 44 -29 44 -34 0 -5 -27 -7 -60 -4
-139 10 -192 5 -220 -21 -32 -30 -31 -47 5 -89 27 -30 30 -41 30 -97 0 -51 4
-68 20 -84 24 -24 72 -26 90 -5 14 17 40 20 40 6 0 -24 132 -31 172 -10 12 7
27 5 46 -5 31 -16 67 -12 93 10 9 8 19 11 23 7 8 -8 13 -9 42 -12 8 0 12 -5 9
-11 -12 -20 24 -10 52 14 l28 24 34 -21 c41 -25 116 -29 154 -8 21 11 32 12
52 3 33 -15 68 -15 83 0 9 9 21 7 50 -6 42 -19 64 -14 92 18 10 13 8 25 -15
71 -25 49 -27 57 -13 72 39 46 21 79 -48 90 -23 4 -46 16 -57 30 -26 33 -88
33 -107 -1 -16 -32 -48 -39 -79 -19 -15 9 -26 12 -28 6 -5 -15 -55 -3 -79 19
-12 10 -34 22 -49 26 l-27 8 43 28 c65 42 117 103 152 175 24 51 31 82 36 160
4 53 3 98 -1 99 -4 2 -8 10 -8 18 0 10 5 12 13 8 7 -5 6 0 -3 11 -11 13 -12
19 -3 22 8 3 10 28 7 86 -5 85 3 116 27 101 30 -19 87 -35 147 -41 81 -8 103
9 102 76 -2 58 2 84 15 93 6 5 5 8 -2 8 -7 0 -13 9 -13 21 0 32 -86 106 -130
113 -20 3 -49 15 -63 26 -14 11 -30 20 -37 20 -6 0 -9 4 -5 9 3 6 -2 14 -11
19 -9 5 -15 13 -14 18 1 5 -4 29 -11 54 -8 32 -24 57 -57 88 l-46 42 -96 0
c-81 0 -100 -3 -113 -18z m221 -71 c24 -117 139 -221 243 -221 24 0 29 -4 29
-25 0 -21 5 -25 30 -25 l30 0 0 -105 c0 -77 -3 -105 -12 -105 -56 1 -228 57
-228 74 0 2 27 -5 61 -15 88 -27 127 -25 139 7 11 29 13 78 4 112 -13 45 -24
20 -24 -54 l0 -76 -42 7 c-76 11 -152 36 -190 61 -21 13 -40 24 -42 24 -3 0
-6 -114 -8 -252 l-3 -253 -29 -59 c-74 -150 -243 -238 -401 -207 -63 12 -71 6
-14 -10 213 -59 434 85 468 303 5 29 9 134 10 233 2 98 5 183 7 187 21 33 25
-12 22 -244 l-3 -253 -28 -57 c-74 -151 -239 -237 -399 -208 -75 14 -142 46
-132 63 4 7 4 9 -1 5 -5 -5 -24 4 -44 19 -74 54 -130 117 -158 177 -24 53 -28
73 -28 151 0 118 31 191 116 269 67 62 135 92 233 102 l66 7 0 -31 c0 -30 2
-31 30 -26 l30 7 0 -106 0 -106 -49 1 c-104 0 -178 -81 -169 -184 3 -26 3 -48
1 -48 -2 0 -11 16 -19 35 -23 56 -18 106 16 153 35 49 54 60 114 68 25 4 51
12 56 20 23 27 21 144 -2 144 -6 0 -8 -29 -6 -70 l3 -70 -56 0 c-71 0 -128
-37 -153 -99 -20 -52 -20 -80 0 -132 26 -62 82 -99 154 -99 69 0 114 26 147
85 23 40 23 43 23 463 l0 422 98 0 98 0 12 -59z m52 -13 c1 -13 9 -48 20 -78
23 -68 1 -45 -36 38 -29 64 -29 62 -4 62 14 0 20 -7 20 -22z m-300 -703 c0
-94 -29 -140 -99 -158 -92 -23 -144 76 -81 156 11 13 17 27 15 31 -3 3 -2 4 1
1 4 -2 16 1 28 7 18 10 66 21 124 27 8 1 12 -18 12 -64z m-61 -491 c3 -2 0 -9
-6 -15 -16 -16 -67 -7 -71 12 -2 13 4 16 35 12 20 -2 39 -6 42 -9z m-259 -14
c-1 -30 -15 -50 -36 -50 -24 0 -24 -2 -24 -95 l0 -95 -30 0 -30 0 0 98 0 99
-30 -5 c-27 -4 -30 -2 -30 25 l0 29 90 0 c50 0 90 -3 90 -6z m60 -5 c17 -20 5
-45 -20 -45 -11 0 -23 7 -26 15 -6 15 11 45 26 45 4 0 13 -7 20 -15z m90 -47
l0 -63 26 33 c21 27 32 32 67 32 l42 0 -38 -31 c-20 -17 -37 -35 -37 -40 0 -5
18 -34 40 -64 l41 -55 -35 0 c-31 0 -38 5 -58 40 -27 48 -42 47 -46 -3 -3 -34
-6 -37 -33 -37 l-29 0 0 125 0 125 30 0 30 0 0 -62z m330 53 c-1 -32 -15 -51
-39 -51 l-26 0 3 -95 3 -95 -33 0 -33 0 0 97 0 98 -27 -3 c-25 -3 -28 0 -28
25 l0 29 90 0 c50 0 90 -2 90 -5z m288 -51 l-4 -60 31 30 c22 21 41 30 65 30
l34 0 -37 -37 -36 -38 39 -52 c22 -28 40 -54 40 -57 0 -3 -13 -6 -30 -6 -24 0
-35 8 -56 40 -15 22 -31 40 -35 40 -5 0 -9 -18 -9 -40 0 -38 -2 -40 -30 -40
l-30 0 0 125 0 125 31 0 31 0 -4 -60z m-144 0 c15 -5 34 -25 43 -44 53 -111
-96 -199 -179 -106 -77 85 22 194 136 150z m-554 -105 l0 -85 -30 0 -30 0 0
85 0 85 30 0 30 0 0 -85z m244 49 c8 -21 8 -58 -1 -79 -5 -14 -10 -10 -29 21
-17 28 -20 42 -13 56 12 22 35 23 43 2z"/>
<path d="M1553 2208 c-4 -7 -10 -201 -13 -430 -5 -403 -6 -417 -26 -445 -38
-50 -81 -73 -143 -73 -45 -1 -52 -3 -37 -11 10 -6 42 -9 71 -7 65 5 111 37
136 92 17 38 19 73 19 458 l0 417 63 4 62 3 -62 2 c-40 1 -65 -2 -70 -10z"/>
<path d="M1284 1781 c-105 -25 -198 -104 -247 -209 -28 -58 -32 -77 -31 -147
0 -44 5 -90 10 -102 6 -15 9 9 9 80 0 91 3 108 27 158 15 30 48 76 73 102 48
48 152 107 191 107 13 0 26 5 29 10 7 11 -15 11 -61 1z"/>
<path d="M1688 879 c-26 -15 -23 -65 3 -80 33 -17 69 3 69 39 0 46 -32 65 -72
41z"/>
<path d="M50 691 c0 -24 4 -29 20 -28 21 1 28 17 8 17 -9 0 -9 3 0 12 18 18
15 28 -8 28 -15 0 -20 -7 -20 -29z"/>
<path d="M63 653 c-20 -7 -15 -22 7 -20 20 1 27 12 13 20 -5 2 -14 2 -20 0z"/>
<path d="M60 619 c-13 -8 -13 -10 0 -19 9 -5 10 -10 3 -10 -8 0 -11 -27 -10
-87 2 -79 4 -88 22 -92 20 -3 20 -3 0 20 -17 19 -18 22 -2 16 13 -5 17 -1 17
19 0 13 -7 27 -15 30 -8 4 -12 11 -9 16 4 6 10 5 15 -3 6 -10 9 -4 9 17 0 16
-6 36 -12 43 -8 8 -8 11 -2 8 7 -4 12 3 12 18 0 30 -9 37 -28 24z"/>
<path d="M53 383 c9 -2 25 -2 35 0 9 3 1 5 -18 5 -19 0 -27 -2 -17 -5z"/>
<path d="M50 350 c-13 -8 -13 -11 2 -26 12 -12 14 -23 7 -40 -5 -16 -5 -24 2
-24 6 0 7 -5 4 -10 -4 -6 -11 -8 -16 -5 -5 4 -9 1 -9 -4 0 -6 10 -10 23 -9 21
2 23 7 24 65 2 64 -5 74 -37 53z"/>
<path d="M59 203 c-1 -5 -1 -12 0 -17 1 -4 -4 -14 -10 -22 -9 -11 -8 -14 3
-14 19 0 18 -40 -2 -41 -10 0 -11 -2 -2 -6 15 -6 16 -33 1 -33 -16 0 -1 -17
21 -23 21 -5 23 14 6 42 -6 9 -5 12 1 8 6 -4 10 9 10 33 0 22 -4 37 -10 33 -5
-3 -4 4 2 15 6 11 11 23 11 26 0 9 -30 7 -31 -1z"/>
</g>
</svg>
